<?xml version="1.0" encoding="utf-8"?>
<!-- Generator: Adobe Illustrator 25.4.1, SVG Export Plug-In . SVG Version: 6.00 Build 0)  -->
<svg version="1.1" id="Vrstva_1" xmlns="http://www.w3.org/2000/svg" xmlns:xlink="http://www.w3.org/1999/xlink" x="0px" y="0px"
	 viewBox="0 0 595.3 841.9" style="enable-background:new 0 0 595.3 841.9;" xml:space="preserve">
<style type="text/css">
	.st0{fill:#FFFFFF;}
	.st1{display:none;fill:none;stroke:#000000;stroke-width:10;stroke-miterlimit:10;}
</style>
<path class="st0" d="M239.2,297.6c-1.9,0-3.3-0.2-4.3-0.6c-1-0.4-1.5-1.1-1.5-2v-12.5c0.5-1.5,1.1-2.8,1.8-3.9
	c0.7-1.1,1.4-2,2.2-2.7c0.8-0.7,1.5-1.2,2.3-1.6c0.8-0.4,1.5-0.5,2.2-0.5c0.8,0,1.5,0.2,2.2,0.5c0.7,0.3,1.2,0.8,1.5,1.3
	c-1.3,0-2.3,0.4-3,1.1c-0.6,0.7-1,1.5-1,2.5c0,1,0.4,1.9,1.1,2.6c0.7,0.7,1.7,1.1,3.1,1.1c1.4,0,2.4-0.5,3.2-1.4
	c0.8-1,1.2-2.2,1.2-3.7c0-1.2-0.2-2.3-0.7-3.2c-0.5-0.9-1.1-1.7-1.8-2.3c-0.7-0.6-1.6-1-2.5-1.3c-0.9-0.3-1.8-0.4-2.7-0.4
	c-1.9,0-3.6,0.5-5.2,1.5c-1.6,1-3,2.6-4.1,4.9v-5.6h-13v3.3c3.4,0,5,0.9,5,2.6V295c0,1.8-1.7,2.6-5,2.6v3.3h18.8V297.6z"/>
<path class="st0" d="M281.3,273.5c-1.4-1.2-3.1-2.1-5-2.6c-1.9-0.5-4-0.8-6.1-0.8c-5.5,0-9.6,1.4-12.3,4.3s-4,7-4,12.3
	c0,2.9,0.4,5.4,1.3,7.3c0.9,2,2,3.5,3.4,4.7c1.4,1.2,3.1,2,5,2.5c1.9,0.5,3.9,0.7,6,0.7c5.3,0,9.4-1.4,12.2-4.2
	c2.8-2.8,4.2-6.7,4.2-11.8c0-3-0.4-5.6-1.3-7.6C283.8,276.4,282.7,274.8,281.3,273.5z M276.1,295.1c-1.2,2.1-3.4,3.1-6.5,3.1
	c-1.2,0-2.3-0.2-3.3-0.6c-1-0.4-1.8-1.1-2.4-2.1c-0.7-1-1.2-2.3-1.5-4.1c-0.4-1.7-0.5-3.9-0.5-6.5c0-3.5,0.7-6.3,2-8.2
	c1.3-1.9,3.4-2.8,6.3-2.8c1.2,0,2.2,0.2,3.2,0.6c1,0.4,1.8,1,2.5,2s1.2,2.2,1.6,3.8c0.4,1.6,0.6,3.6,0.6,6.1
	C277.9,290.1,277.3,293,276.1,295.1z"/>
<path class="st0" d="M337.4,277.2v15.7c0,3.1,0.7,5.3,2.2,6.7c1.5,1.4,3.8,2,6.8,2c1.5,0,2.8-0.2,4.1-0.5c1.2-0.4,2.3-0.8,3.3-1.4
	c1-0.6,1.9-1.3,2.6-2.1c0.8-0.8,1.4-1.6,2-2.5v6H371v-3.3c-3.1,0-4.6-0.9-4.6-2.6v-23.8h-13.1v3.3c1.8,0,3,0.2,3.9,0.7
	c0.8,0.4,1.2,1.1,1.2,2v12.1c-0.9,2.3-2.1,4.1-3.7,5.5c-1.6,1.4-3.3,2.2-5.2,2.2c-1.5,0-2.6-0.5-3.3-1.5c-0.7-1-1-2.8-1-5.2v-19
	h-12.9v3.3C335.7,274.6,337.4,275.4,337.4,277.2z"/>
<path class="st0" d="M220.2,211.7h-21.4v3.8c3.8,0,5.7,1,5.7,3v24.9c0,2.3-0.2,4.3-0.6,5.9c-0.4,1.6-1,2.9-1.7,3.9
	c-0.8,1-1.7,1.7-2.8,2.2c-1.1,0.5-2.4,0.7-3.8,0.7c-0.9,0-1.7-0.1-2.5-0.3s-1.6-0.5-2.3-0.8c-0.7-0.4-1.3-0.8-1.8-1.3
	c-0.5-0.5-0.8-1-1-1.6c1.3-0.1,2.3-0.6,3.1-1.4c0.8-0.8,1.2-1.9,1.2-3.1c0-1.4-0.5-2.5-1.4-3.4c-0.9-0.9-2.2-1.4-3.8-1.4
	c-1.7,0-3.1,0.5-4.1,1.6c-1,1.1-1.5,2.5-1.5,4.3c0,1.7,0.3,3.2,1,4.7c0.7,1.4,1.6,2.7,2.9,3.8c1.3,1.1,2.9,2,4.8,2.6
	c1.9,0.6,4.1,0.9,6.6,0.9c5.6,0,9.9-1.4,12.9-4.2c3-2.8,4.5-7,4.5-12.6v-25.3c0-2,1.9-3,5.8-3V211.7z"/>
<path class="st0" d="M225.7,258.2c1.9,1.7,4.8,2.5,8.9,2.5c1.7,0,3.2-0.2,4.7-0.6c1.5-0.4,2.8-0.9,3.9-1.6c1.2-0.7,2.2-1.4,3-2.3
	c0.8-0.9,1.5-1.8,2-2.7c0.2,0.9,0.4,1.7,0.7,2.4c0.3,0.8,0.7,1.5,1.3,2.1c0.6,0.6,1.2,1.1,2.1,1.4c0.8,0.4,1.8,0.5,3,0.5
	c1,0,2-0.1,2.9-0.4c0.9-0.3,1.6-0.7,2.3-1.3c0.6-0.6,1.1-1.4,1.5-2.4c0.3-1,0.5-2.2,0.5-3.6v-2.9h-3v3.8c0,0.7-0.2,1.4-0.5,2
	c-0.3,0.6-0.8,0.9-1.4,0.9c-1.3,0-1.9-0.9-1.9-2.8v-16c0-2.3-0.4-4.2-1.3-5.8c-0.8-1.5-2-2.7-3.4-3.6c-1.4-0.9-3-1.5-4.9-1.9
	c-1.8-0.4-3.8-0.5-5.7-0.5c-2.4,0-4.6,0.3-6.5,0.8c-1.9,0.5-3.5,1.2-4.8,2.1c-1.3,0.8-2.3,1.8-3,2.9c-0.7,1.1-1,2.1-1,3.2
	c0,1.4,0.4,2.5,1.1,3.3c0.8,0.8,1.9,1.2,3.4,1.2c1.5,0,2.6-0.4,3.4-1.1c0.8-0.8,1.2-1.7,1.2-2.9c0-1-0.3-1.8-1-2.4
	c-0.7-0.6-1.5-0.9-2.5-1c0.9-0.7,2.1-1.3,3.6-1.7c1.5-0.4,3.3-0.6,5.5-0.6c1.3,0,2.4,0.2,3.3,0.6c0.9,0.4,1.7,1,2.4,1.7
	c0.6,0.7,1.1,1.5,1.4,2.5c0.3,0.9,0.4,2,0.4,3v2c-1.9,0.5-3.8,0.9-5.7,1.3c-1.9,0.3-3.8,0.7-5.5,1.1c-1.8,0.4-3.5,0.8-5,1.2
	c-1.6,0.5-2.9,1.1-4.1,1.8c-1.2,0.8-2.1,1.7-2.8,2.9c-0.7,1.1-1,2.6-1,4.3C222.9,254.3,223.8,256.5,225.7,258.2z M231.9,247.5
	c0.6-0.9,1.6-1.6,3-2.3c1.3-0.7,3-1.3,5-1.9c2-0.6,4.4-1.2,7.1-1.9v9c-0.8,1.4-2.1,2.6-3.8,3.6c-1.7,1.1-3.6,1.6-5.8,1.6
	c-2.2,0-3.8-0.4-4.9-1.3c-1.1-0.9-1.6-2.1-1.6-3.6C231,249.4,231.3,248.4,231.9,247.5z"/>
<path class="st0" d="M283.6,255.9c-2.8,0-4.2-1-4.2-2.9v-13.3c1.1-2.7,2.6-4.8,4.3-6.3c1.8-1.5,3.6-2.3,5.5-2.3
	c1.3,0,2.3,0.6,2.9,1.7c0.5,1,0.9,2.5,0.9,4.6v59.2c-0.8,0.7-2.2,1-4.3,1v3.3h18v-3.3c-3,0-4.7-0.7-4.9-2.2v-5.6l5.9-4.1l7.2,9.9
	c0.3,0.4,0.5,0.8,0.5,1.1c0,0.6-0.5,0.9-1.5,0.9h-3.5v3.3h18.8v-3.3c-1.3,0-2.3-0.2-3-0.5c-0.7-0.3-1.3-0.8-1.8-1.5L314,281.5
	l6.3-4.6c1-0.7,2.2-1.3,3.5-1.7c1.3-0.4,2.7-0.6,4.2-0.7v-3.3h-17.3v3.3h2.8c0.5,0,0.9,0.1,1.2,0.4c0.2,0.2,0.4,0.5,0.4,0.8
	c0,0.5-0.3,1-0.8,1.3l-12.3,8.9v-35.8c0,0,0,0,0,0v-10.5c1.2-2.7,2.7-4.8,4.4-6.3c1.7-1.5,3.6-2.3,5.5-2.3c1.3,0,2.2,0.6,2.9,1.7
	c0.6,1.2,0.9,3.1,0.9,5.8V253c0,1.9-1.4,2.9-4.2,2.9v3.7h18.5v-3.7c-3.6,0-5.5-1-5.5-2.9v-17.3c0-3.4-0.8-5.8-2.5-7.3
	c-1.7-1.5-3.9-2.3-6.7-2.3c-3,0-5.6,0.7-7.9,2.2c-2.3,1.5-4.1,3.2-5.5,5.3c-0.4-2.6-1.4-4.5-3-5.7c-1.6-1.2-3.6-1.8-6.1-1.8
	c-1.6,0-3.1,0.2-4.5,0.6c-1.3,0.4-2.5,1-3.6,1.6c-1.1,0.7-2.1,1.5-3,2.4s-1.7,1.8-2.4,2.8l0.1-6.8h-14.2v3.7c3.6,0,5.4,1,5.4,2.9
	V253c0,1.9-1.8,2.9-5.4,2.9v3.7h18.5V255.9z"/>
<path class="st0" d="M372.4,253.7L361,238.1l6.9-5c1.1-0.8,2.4-1.4,3.9-1.8c1.5-0.4,3-0.7,4.6-0.8v-3.7h-19.1v3.7h3.1
	c0.6,0,1,0.1,1.3,0.4c0.3,0.3,0.4,0.6,0.4,0.9c0,0.6-0.3,1.1-0.8,1.5l-13.7,9.9l0-33.1h-14.4v3.7c3.7,0,5.5,1,5.5,2.9V253
	c0,1.9-1.8,2.9-5.5,2.9v3.7H353v-3.7c-3.6,0-5.5-1-5.5-2.9v-5.7l6.5-4.5l8,10.9c0.3,0.5,0.5,0.9,0.5,1.2c0,0.7-0.5,1-1.6,1h-3.9v3.7
	h20.7v-3.7c-1.4,0-2.5-0.2-3.3-0.5C373.6,255,372.9,254.4,372.4,253.7z"/>
<path class="st0" d="M416.1,249.4v3.8c0,0.7-0.2,1.4-0.5,2c-0.3,0.6-0.8,0.9-1.4,0.9c-1.3,0-1.9-0.9-1.9-2.8v-16
	c0-2.3-0.4-4.2-1.3-5.8c-0.8-1.5-2-2.7-3.4-3.6c-1.4-0.9-3-1.5-4.9-1.9c-1.8-0.4-3.8-0.5-5.7-0.5c-2.4,0-4.6,0.3-6.5,0.8
	c-1.9,0.5-3.5,1.2-4.8,2.1c-1.3,0.8-2.3,1.8-3,2.9c-0.7,1.1-1,2.1-1,3.2c0,1.4,0.4,2.5,1.1,3.3c0.8,0.8,1.9,1.2,3.4,1.2
	c1.5,0,2.6-0.4,3.4-1.1c0.8-0.8,1.2-1.7,1.2-2.9c0-1-0.3-1.8-1-2.4c-0.7-0.6-1.5-0.9-2.5-1c0.9-0.7,2.1-1.3,3.6-1.7
	c1.5-0.4,3.3-0.6,5.5-0.6c1.3,0,2.4,0.2,3.3,0.6c0.9,0.4,1.7,1,2.3,1.7s1.1,1.5,1.4,2.5c0.3,0.9,0.4,2,0.4,3v2
	c-1.9,0.5-3.8,0.9-5.7,1.3c-1.9,0.3-3.8,0.7-5.5,1.1c-1.8,0.4-3.5,0.8-5,1.2c-1.6,0.5-2.9,1.1-4.1,1.8c-1.2,0.8-2.1,1.7-2.8,2.9
	c-0.7,1.1-1,2.6-1,4.3c0,2.8,0.9,5.1,2.8,6.7c1.9,1.7,4.8,2.5,8.9,2.5c1.7,0,3.2-0.2,4.7-0.6c1.5-0.4,2.8-0.9,3.9-1.6
	c1.2-0.7,2.2-1.4,3-2.3c0.8-0.9,1.5-1.8,2-2.7c0.2,0.9,0.4,1.7,0.7,2.4c0.3,0.8,0.7,1.5,1.3,2.1c0.6,0.6,1.2,1.1,2.1,1.4
	s1.8,0.5,3,0.5c1,0,2-0.1,2.9-0.4c0.9-0.3,1.6-0.7,2.3-1.3c0.6-0.6,1.1-1.4,1.5-2.4c0.3-1,0.5-2.2,0.5-3.6v-2.9H416.1z M403.9,250.4
	c-0.8,1.4-2.1,2.6-3.8,3.6c-1.7,1.1-3.6,1.6-5.8,1.6c-2.2,0-3.8-0.4-4.9-1.3c-1.1-0.9-1.6-2.1-1.6-3.6c0-1.3,0.3-2.4,1-3.2
	c0.6-0.9,1.6-1.6,3-2.3c1.3-0.7,3-1.3,5-1.9c2-0.6,4.4-1.2,7.1-1.9V250.4z"/>
<path class="st0" d="M303.3,566.7c0,0,8.2-44.1,66.8-46.1C361,565.7,309.3,567,303.3,566.7z"/>
<path class="st0" d="M375.5,543.7c0,0-11.1-43.3,40.4-73.6C426.6,514.7,381.1,541,375.5,543.7z"/>
<path class="st0" d="M429.7,488.5c0,0-22.8-34,13.1-78.5C465.6,445.4,433.7,484.2,429.7,488.5z"/>
<path class="st0" d="M456.9,415.6c0,0-33.4-13.9-26.5-67.7C464.5,362.9,458,410.1,456.9,415.6z"/>
<path class="st0" d="M450.7,349.1c0,0-35.8,0.5-47.8-52.3C439.6,297.1,449.8,343.6,450.7,349.1z"/>
<path class="st0" d="M449.8,324.9c0,0,28.2-32-0.1-76.4C421.3,281.7,446.6,320.6,449.8,324.9z"/>
<path class="st0" d="M460.3,364.4c0,0,35.5-22,20.1-73.3C444.3,314.2,458.3,359.2,460.3,364.4z"/>
<path class="st0" d="M465,399.8c0,0,38.4-10.4,36.5-62.5C462.3,348.6,464.4,394.4,465,399.8z"/>
<path class="st0" d="M458.1,446.7c0,0,40.4-11.9,41.2-59.5C458,400,457.8,441.9,458.1,446.7z"/>
<path class="st0" d="M443,482.4c0,0,41.8,2.3,56.3-42.7C456.3,438,444.1,477.7,443,482.4z"/>
<path class="st0" d="M413.3,520.7c0,0,44.9,9.9,67.3-27.1C434.4,484,415.2,516.7,413.3,520.7z"/>
<path class="st0" d="M385.5,549.1c0,0,46.8,22.8,79.5-10.6C416.8,515.5,388.5,545.3,385.5,549.1z"/>
<path class="st0" d="M342.2,562.4c0,0,46.1,29.5,79,10.9C373.7,543.4,345.2,560.2,342.2,562.4z"/>
<path class="st0" d="M301,576.2c0,0,43.9,33.1,78.1,17.1C333.7,559.7,304.1,574.2,301,576.2z"/>
<path class="st0" d="M308.1,573.3c0,0-39.9,13.7-44.8,41.6c4,0.5,4,0.5,4,0.5s6.9-24.5,40.8-37.2"/>
<path class="st0" d="M288,566.7c0,0-8.2-44.1-66.8-46.1C230.3,565.7,281.9,567,288,566.7z"/>
<path class="st0" d="M215.7,543.7c0,0,11.1-43.3-40.4-73.6C164.6,514.7,210.2,541,215.7,543.7z"/>
<path class="st0" d="M161.6,488.5c0,0,22.8-34-13.1-78.5C125.6,445.4,157.6,484.2,161.6,488.5z"/>
<path class="st0" d="M134.3,415.6c0,0,33.4-13.9,26.5-67.7C126.7,362.9,133.2,410.1,134.3,415.6z"/>
<path class="st0" d="M140.5,349.1c0,0,35.8,0.5,47.8-52.3C151.6,297.1,141.4,343.6,140.5,349.1z"/>
<path class="st0" d="M141.4,324.9c0,0-28.2-32,0.1-76.4C170,281.7,144.7,320.6,141.4,324.9z"/>
<path class="st0" d="M130.9,364.4c0,0-35.5-22-20.1-73.3C146.9,314.2,132.9,359.2,130.9,364.4z"/>
<path class="st0" d="M126.3,399.8c0,0-38.4-10.4-36.5-62.5C129,348.6,126.9,394.4,126.3,399.8z"/>
<path class="st0" d="M133.1,446.7c0,0-40.4-11.9-41.2-59.5C133.3,400,133.5,441.9,133.1,446.7z"/>
<path class="st0" d="M148.2,482.4c0,0-41.8,2.3-56.3-42.7C134.9,438,147.2,477.7,148.2,482.4z"/>
<path class="st0" d="M177.9,520.7c0,0-44.9,9.9-67.3-27.1C156.8,484,176,516.7,177.9,520.7z"/>
<path class="st0" d="M205.7,549.1c0,0-46.8,22.8-79.5-10.6C174.4,515.5,202.7,545.3,205.7,549.1z"/>
<path class="st0" d="M249,562.4c0,0-46.1,29.5-79,10.9C217.5,543.4,246,560.2,249,562.4z"/>
<path class="st0" d="M290.2,576.2c0,0-43.9,33.1-78.1,17.1C257.5,559.7,287.1,574.2,290.2,576.2z"/>
<path class="st0" d="M283.2,573.3c0,0,39.9,13.7,44.8,41.6c-4,0.5-4,0.5-4,0.5s-6.9-24.5-40.8-37.2"/>
<path class="st1" d="M299.1,665.9c0,0,53.3,4.3,129.9-53.5c76.6-57.9,89.4-188.2,27.8-259.3"/>
<g>
	<path class="st0" d="M367.4,347.1h3.9v-32.7H220v32.7h4c0.4,28.8,6.1,84.5,40.9,114.1h-10.1h-21.4h-5.9h-7.8l11.4,42.7h6.1h8.2
		h14.6h14.3h14.7v75h13.4v-75H354v-0.2h5l11.4-42.7h-13.7l0,0.2h-21.3l0-0.2h-8.7C361.3,431.4,367,375.8,367.4,347.1z M241.4,489.8
		l-4-14.4h19.1l1.8,14.4H241.4z M333.6,475.4h19.1l-4,14.4h-16.8L333.6,475.4z M256.8,377.6h-3.2c0.7-3.7,1.8-6.8,3.4-9.2
		c1.5-2.4,3.2-4.4,5-6c1.8-1.6,3.7-2.9,5.7-4c2-1.1,3.8-2.2,5.4-3.4c1.6-1.2,2.9-2.6,4-4.2c1-1.6,1.5-3.7,1.5-6.2
		c0-2.4-0.7-4.5-2.2-6.1c-1.5-1.7-3.7-2.5-6.8-2.5c-1.3,0-2.4,0.1-3.4,0.3c-0.9,0.2-1.8,0.5-2.4,0.9c-0.7,0.4-1.2,0.8-1.7,1.3
		c-0.4,0.5-0.8,1-1.1,1.5c0.9,0,1.8,0.5,2.6,1.2c0.8,0.8,1.1,1.8,1.1,2.9c0,1.4-0.4,2.5-1.3,3.5c-0.9,0.9-2.1,1.4-3.6,1.4
		c-1.5,0-2.7-0.5-3.5-1.4c-0.8-1-1.2-2.2-1.2-3.7c0-1.3,0.3-2.6,0.9-4c0.6-1.4,1.6-2.8,2.8-4c1.3-1.2,2.9-2.2,5-3
		c2-0.8,4.4-1.2,7.3-1.2c2.3,0,4.5,0.2,6.7,0.7c2.2,0.5,4.1,1.3,5.7,2.4c1.6,1.1,3,2.6,4,4.4c1,1.8,1.5,4.1,1.5,6.7
		c0,2.9-0.6,5.3-1.9,7.2c-1.3,1.9-2.9,3.5-4.9,4.8c-2,1.3-4.1,2.4-6.5,3.2c-2.3,0.9-4.6,1.8-6.7,2.6c-2.1,0.9-4,1.9-5.6,3
		c-1.6,1.1-2.6,2.5-3.1,4.2c1.5-1.3,3-2.2,4.5-2.7c1.5-0.4,3-0.7,4.6-0.7c1.5,0,2.8,0.2,3.9,0.5c1.1,0.4,2.2,0.7,3.1,1.1
		c1,0.4,1.9,0.8,2.8,1.1c0.9,0.4,1.9,0.5,3,0.5c0.5,0,1.1-0.1,1.6-0.2c0.5-0.1,1-0.4,1.4-0.7c0.4-0.4,0.8-0.9,1.1-1.5
		c0.3-0.6,0.6-1.5,0.7-2.6h3c0.1,0.6,0.1,1.2,0.2,1.9c0,0.7,0,1.3,0,1.7c0,1.2-0.1,2.4-0.4,3.4s-0.7,2-1.4,2.8
		c-0.7,0.8-1.5,1.4-2.6,1.9c-1.1,0.5-2.3,0.7-3.9,0.7c-2.2,0-3.9-0.2-5.3-0.7c-1.4-0.5-2.7-1-3.9-1.6c-1.2-0.6-2.5-1.1-3.8-1.6
		c-1.3-0.5-3.1-0.7-5.1-0.7c-1.7,0-3.1,0.3-4.2,1C258.6,375.5,257.7,376.4,256.8,377.6z M288.9,489.8h-16.6l-1.9-14.4h18.5V489.8z
		 M296.8,429c-0.3,1.1-0.7,2-1.4,2.8c-0.7,0.8-1.5,1.4-2.6,1.9c-1.1,0.5-2.3,0.7-3.9,0.7c-2.2,0-3.9-0.2-5.3-0.7
		c-1.4-0.5-2.7-1-3.9-1.6c-1.2-0.6-2.5-1.1-3.8-1.6c-1.3-0.5-3.1-0.7-5.1-0.7c-1.7,0-3.1,0.3-4.2,1c-1.1,0.7-2.1,1.6-2.9,2.8h-3.2
		c0.7-3.7,1.8-6.8,3.4-9.2c1.5-2.4,3.2-4.4,5-6c1.8-1.6,3.7-2.9,5.7-4c2-1.1,3.8-2.2,5.4-3.4c1.6-1.2,2.9-2.6,4-4.2
		c1-1.6,1.5-3.7,1.5-6.2c0-2.4-0.7-4.5-2.2-6.1c-1.5-1.7-3.7-2.5-6.8-2.5c-1.3,0-2.4,0.1-3.4,0.3c-0.9,0.2-1.8,0.5-2.4,0.9
		c-0.7,0.4-1.2,0.8-1.7,1.3c-0.4,0.5-0.8,1-1.1,1.5c0.9,0,1.8,0.5,2.6,1.2c0.8,0.8,1.1,1.8,1.1,2.9c0,1.4-0.4,2.5-1.3,3.5
		c-0.9,0.9-2.1,1.4-3.6,1.4c-1.5,0-2.7-0.5-3.5-1.4c-0.8-1-1.2-2.2-1.2-3.7c0-1.3,0.3-2.6,0.9-4c0.6-1.4,1.6-2.8,2.8-4
		c1.3-1.2,2.9-2.2,5-3c2-0.8,4.4-1.2,7.3-1.2c2.3,0,4.5,0.2,6.7,0.7c2.2,0.5,4.1,1.3,5.7,2.4c1.6,1.1,3,2.6,4,4.4
		c1,1.8,1.5,4.1,1.5,6.7c0,2.9-0.6,5.3-1.9,7.2c-1.3,1.9-2.9,3.5-4.9,4.8c-2,1.3-4.1,2.4-6.5,3.2c-2.3,0.9-4.6,1.8-6.7,2.6
		c-2.1,0.9-4,1.9-5.6,3s-2.6,2.5-3.1,4.2c1.5-1.3,3-2.2,4.5-2.7s3-0.7,4.6-0.7c1.5,0,2.8,0.2,3.9,0.5c1.1,0.4,2.2,0.7,3.1,1.1
		c1,0.4,1.9,0.8,2.8,1.1c0.9,0.4,1.9,0.5,3,0.5c0.5,0,1.1-0.1,1.6-0.2c0.5-0.1,1-0.4,1.4-0.7c0.4-0.4,0.8-0.9,1.1-1.5
		c0.3-0.7,0.6-1.5,0.7-2.6h3c0.1,0.6,0.1,1.2,0.2,1.9c0,0.7,0,1.3,0,1.8C297.2,426.8,297,427.9,296.8,429z M317.7,489.8h-15.5v-14.4
		h17.4L317.7,489.8z M330.7,433.7h-25.3v-3.8c5.6,0,8.3-1,8.3-2.9v-27.8h-9l-0.3-3.6c6.3-0.1,10.6-2.8,13-8l6.5,0.7
		c-0.1,1.2-0.2,2.2-0.3,3.1c-0.1,0.9-0.1,1.7-0.1,2.4V427c0,1.9,2.4,2.9,7.1,2.9V433.7z M326.4,377.6c-2.5,0.7-5.4,1.1-8.8,1.1
		s-6.3-0.4-8.8-1.1s-4.6-2-6.3-3.8c-1.7-1.8-2.9-4.1-3.7-7.1s-1.2-6.6-1.2-11c0-4.5,0.4-8.3,1.2-11.3c0.8-3.1,2.1-5.5,3.7-7.4
		c1.6-1.9,3.7-3.2,6.2-4c2.5-0.8,5.5-1.2,8.8-1.2s6.3,0.4,8.8,1.2c2.5,0.8,4.6,2.1,6.3,4c1.7,1.9,2.9,4.3,3.7,7.4
		c0.8,3.1,1.2,6.9,1.2,11.3c0,4.4-0.4,8.1-1.2,11s-2.1,5.3-3.7,7.1C331,375.6,328.9,376.8,326.4,377.6z"/>
	<path class="st0" d="M325.6,341.6c-0.8-1.7-1.8-3-3.1-3.9c-1.3-0.9-2.9-1.3-4.9-1.3c-2,0-3.6,0.5-4.9,1.3c-1.3,0.9-2.3,2.2-3.1,3.9
		c-0.7,1.7-1.3,3.7-1.5,6.1c-0.3,2.4-0.4,5-0.4,8c0,3.5,0.1,6.4,0.4,8.8c0.3,2.3,0.8,4.2,1.5,5.7c0.7,1.4,1.8,2.5,3,3.1
		c1.3,0.6,2.9,0.9,4.9,0.9c2,0,3.7-0.3,4.9-0.9c1.3-0.6,2.3-1.6,3.1-3.1c0.8-1.4,1.3-3.3,1.6-5.7c0.3-2.3,0.4-5.3,0.4-8.8
		c0-3-0.1-5.6-0.4-8C326.9,345.3,326.3,343.3,325.6,341.6z"/>
</g>
</svg>
