<?xml version="1.0" encoding="utf-8"?>
<!-- Generator: Adobe Illustrator 25.2.3, SVG Export Plug-In . SVG Version: 6.00 Build 0)  -->
<svg version="1.1" id="Layer_1" xmlns="http://www.w3.org/2000/svg" xmlns:xlink="http://www.w3.org/1999/xlink" x="0px" y="0px"
	 viewBox="0 0 550 175" style="enable-background:new 0 0 550 175;" xml:space="preserve">
<style type="text/css">
	.st0{fill:#FFFFFF;}
	.st1{fill:#F17125;}
</style>
<g>
	<rect x="303.4" y="16.8" class="st0" width="20.9" height="20.9"/>
	<g>
		<g>
			<g>
				<path class="st0" d="M190.9,46c-1.5-0.4-3.3-0.5-5.3-0.5c-1,0-2.1,0-3.2,0.1c-1.8,0.2-3.8,0.5-5.9,0.9c-1.8,0.4-3.5,0.8-5.3,1.3
					c-12.3,3.6-23.7,10.5-26.9,16.7c-2.7,5.4,1.5,8.6,9.9,8.6c1,0,2.1,0,3.3-0.1c1.8-0.2,3.8-0.5,5.9-0.9c3.1-0.6,6.3-1.5,9.3-2.6
					c7.7-2.7,14.7-6.7,19.1-10.8c1.7-1.6,3-3.1,3.7-4.7C197.7,50,195.7,47.2,190.9,46z"/>
			</g>
			<path class="st0" d="M116.5,86.1L12,119.4l0-0.8c5.3-5.2,11.6-8.6,18.5-11.5l108.3-45.9C131,75.5,132,81.3,116.5,86.1z"/>
		</g>
		<g>
			<g>
				<g>
					<g>
						<path class="st0" d="M304.6,58.5l18.6-4.6v101.4h-18.6V58.5z"/>
						<path class="st0" d="M344.6,131.2c3.4,3.4,7.6,6.2,12.4,8.3c4.8,2.1,10.4,3.1,16.7,3.1c6.2,0,11.4-1,15.5-3
							c4.1-2,6.2-5.1,6.2-9.4c0-2.2-0.4-4.1-1.3-5.7c-0.9-1.6-2.4-3-4.5-4.2c-2.1-1.2-5-2.4-8.5-3.4c-3.5-1-7.9-2.2-13.1-3.4
							c-3.7-0.8-7.4-1.9-11-3.3c-3.6-1.4-6.9-3.2-9.8-5.5c-2.9-2.3-5.2-5-7-8.3c-1.8-3.2-2.7-7.1-2.7-11.7c0-4.7,1.1-8.8,3.2-12.3
							c2.1-3.5,5-6.5,8.6-8.9c3.6-2.4,7.6-4.2,12.1-5.5c4.5-1.2,9.1-1.9,13.9-1.9c8.1,0,15.1,1.1,21,3.2c5.8,2.1,11,5.1,15.4,9
							l-10.1,12.8c-2.9-2.6-6.5-4.8-10.8-6.6c-4.3-1.8-9.4-2.7-15.2-2.7c-5.9,0-10.7,1-14.2,2.9c-3.6,1.9-5.4,5.1-5.4,9.5
							c0,4.1,2.4,7.2,7.1,9.2c4.7,2,11,3.9,18.7,5.7c4.5,1.1,8.8,2.4,12.7,3.8c3.9,1.4,7.4,3.3,10.3,5.6c3,2.3,5.3,5.1,7,8.4
							c1.7,3.3,2.6,7.3,2.6,12c0,4.8-1.1,9.1-3.3,12.7c-2.2,3.6-5.2,6.7-8.9,9.2c-3.7,2.5-8,4.3-12.8,5.6c-4.8,1.2-9.8,1.9-15.1,1.9
							c-18.2,0-31.8-4.9-40.9-14.7L344.6,131.2z"/>
						<path class="st0" d="M512,142.1c-4.3,4.8-9.5,8.7-15.8,11.7c-6.3,3-13.5,4.4-21.8,4.4c-7.7,0-14.7-1.3-21-3.8
							c-6.3-2.5-11.6-6.1-15.9-10.5c-4.3-4.5-7.7-9.8-10-16.1c-2.3-6.3-3.5-13.1-3.5-20.5c0-7,1.2-13.6,3.7-19.8
							c2.5-6.2,6-11.6,10.4-16.2c4.5-4.6,9.8-8.3,15.9-10.9c6.1-2.7,12.9-4,20.3-4c8.1,0,15.3,1.4,21.5,4.3
							c6.2,2.9,11.5,6.8,15.9,11.8l-12.2,11.8c-2.9-3.6-6.4-6.4-10.5-8.5c-4.1-2.1-9-3.1-14.7-3.1c-5,0-9.4,0.9-13.3,2.8
							c-3.9,1.9-7.2,4.4-9.9,7.6c-2.7,3.2-4.7,7-6.2,11.1c-1.4,4.2-2.2,8.6-2.2,13.1c0,4.4,0.7,8.7,2.2,12.9
							c1.4,4.2,3.5,7.9,6.2,11.1c2.7,3.2,6,5.8,9.9,7.7c3.9,1.9,8.4,2.9,13.3,2.9c5.6,0,10.7-1.1,15.2-3.2c4.5-2.1,8.2-5,11-8.6
							L512,142.1z"/>
					</g>
				</g>
			</g>
			<g>
				<g>
					<polygon class="st1" points="159.6,16.8 133.6,16.8 133.6,51 159.6,39.4 					"/>
					<path class="st1" d="M133.6,99.2c0,10.5-2.2,18.8-6.5,24.9c-4.3,6.1-12.2,9.2-23.6,9.2c-11.3,0-19.1-3.1-23.5-9.2
						c-2.8-3.8-4.7-8.5-5.7-14l-25.4,7.6c0,0,2.8,9.5,5.1,13.8c4.4,8.3,10.8,14.8,19.1,19.6c8.3,4.8,18.5,7.2,30.5,7.2
						s22.1-2.4,30.5-7.2c8.3-4.8,14.7-11.4,19.1-19.6c4.4-8.3,6.6-17.5,6.6-27.7V83.3l-26,6.4V99.2z"/>
					<polygon class="st1" points="73.3,16.8 47.3,16.8 47.3,89.5 73.3,77.9 					"/>
					<path class="st0" d="M284.5,55c-3.7-8.7-8.9-15.9-15.5-21.6c-6.6-5.7-14.5-9.9-23.6-12.6c-9.2-2.7-19.2-4-30-4h-41.4v17.8h40.1
						c18.3,0,32.1,4.4,41.3,13.3c9.2,8.9,13.8,21.7,13.8,38.5c0,16.7-4.8,29.2-14.3,37.7c-9.6,8.5-23,12.7-40.2,12.7h-20.9v-62
						l-19.8,4.9v74.9h41.2c10.9,0,20.9-1.4,30.1-4.1c9.2-2.8,17.1-7,23.7-12.7c6.6-5.7,11.8-12.9,15.5-21.5
						c3.7-8.6,5.6-18.7,5.6-30.2C290,74,288.2,63.7,284.5,55z"/>
				</g>
			</g>
		</g>
	</g>
	<path class="st0" d="M133.6,89.6"/>
</g>
</svg>
