<?xml version="1.0" encoding="utf-8"?>
<!-- Generator: Adobe Illustrator 24.0.1, SVG Export Plug-In . SVG Version: 6.00 Build 0)  -->
<svg version="1.1" id="Vrstva_1" xmlns="http://www.w3.org/2000/svg" xmlns:xlink="http://www.w3.org/1999/xlink" x="0px" y="0px"
	 viewBox="0 0 1626.3 425.2" style="enable-background:new 0 0 1626.3 425.2;" xml:space="preserve">
<style type="text/css">
	.st0{fill:#41AE69;}
</style>
<g>
	<g>
		<path d="M848.2,279.7"/>
	</g>
	<g>
		<g>
			<g>
				<path d="M187.3,252.9c-3,0-5.5-0.1-7.5-0.4c-2-0.3-3.7-0.8-5.1-1.4c-1.4-0.7-2.7-1.5-3.8-2.4c-1.1-1-2.4-2-3.8-3.2l-11.3,58.7
					h-29.9l31.4-163.6h26.8l1,6.4c3.7-2.5,7.4-4.5,11.3-6c3.8-1.5,8.1-2.2,12.9-2.2c7.8,0,14.6,1.2,20.2,3.6
					c5.7,2.4,10.4,5.7,14.1,9.9c3.7,4.2,6.5,9.1,8.4,14.7c1.8,5.6,2.8,11.5,2.8,17.9c0,8.8-1.6,17.4-4.7,25.6
					c-3.1,8.2-7.6,15.5-13.4,21.7c-5.8,6.2-12.9,11.3-21.2,15.1C207,251,197.6,252.9,187.3,252.9z M203.3,161.2
					c-9.1,0-16.4,3.7-21.9,11.2c-5.5,7.5-8.3,19.8-8.3,36.8c0,6.2,1.2,11.2,3.6,15.2c2.4,4,6.8,6,13.2,6c5.1,0,9.7-1.1,13.9-3.4
					c4.1-2.3,7.7-5.4,10.8-9.4c3-4,5.3-8.6,6.9-13.8c1.6-5.2,2.4-10.8,2.4-16.9c0-7.6-1.8-13.9-5.3-18.6
					C215.1,163.6,210,161.2,203.3,161.2z"/>
			</g>
			<g>
				<path d="M332.8,164.5h-11.3c-4.5,0-8.4,1.1-11.7,3.2c-3.4,2.1-6,4.7-7.9,7.8l-14.6,75.2h-29.2l21.1-110.3h29l-2.4,11.7
					c1-1.5,2.4-3,4.3-4.6c1.9-1.6,4.1-3.1,6.7-4.4c2.5-1.3,5.3-2.4,8.3-3.2c3-0.8,5.9-1.2,9-1.2h9.3L332.8,164.5z"/>
			</g>
			<g>
				<path d="M380,252.9c-7.5,0-14.1-1.3-19.9-3.8c-5.7-2.5-10.5-5.8-14.4-10c-3.8-4.2-6.7-9.1-8.6-14.8c-1.9-5.7-2.9-11.7-2.9-18.2
					c0-8.8,1.6-17.3,4.9-25.4c3.3-8.1,7.9-15.3,13.9-21.5c6-6.2,13.1-11.2,21.3-15c8.2-3.7,17.4-5.6,27.4-5.6c7.7,0,14.3,1.2,20,3.6
					c5.7,2.4,10.4,5.8,14.2,10c3.8,4.3,6.7,9.2,8.6,14.9c1.9,5.7,2.9,11.7,2.9,18.2c0,8.8-1.6,17.3-4.9,25.4
					c-3.3,8.1-7.9,15.3-13.8,21.5c-5.9,6.3-13,11.2-21.3,15C399.2,251,390,252.9,380,252.9z M397.5,161.2c-4.8,0-9.2,1.1-13.2,3.4
					c-4,2.3-7.4,5.4-10.3,9.4c-2.9,4-5.1,8.6-6.7,13.9c-1.6,5.3-2.4,11-2.4,17c0,7.6,1.6,13.8,4.9,18.5c3.3,4.7,8.1,7.1,14.5,7.1
					c4.8,0,9.2-1.1,13.2-3.4c4-2.3,7.4-5.4,10.3-9.4c2.9-4,5.1-8.6,6.7-13.9c1.6-5.3,2.4-11,2.4-17c0-7.6-1.6-13.8-4.9-18.5
					C408.7,163.5,403.9,161.2,397.5,161.2z"/>
			</g>
			<g>
				<path d="M456.5,253L489,83h62.5c10.2,0,19.5,1.5,27.8,4.6c8.3,3.1,15.5,7.5,21.4,13.4c5.9,5.8,10.4,13,13.6,21.4
					c3.2,8.4,4.7,18,4.7,28.7c0,15.5-2.6,29.6-7.9,42.1c-5.3,12.6-12.5,23.3-21.6,32.2c-9.1,8.9-19.7,15.8-31.8,20.5
					c-12,4.8-24.9,7.2-38.6,7.2h-28.7H456.5z M517.2,112.6l-21.1,110.8h28.8c9.3,0,17.6-1.8,24.7-5.4c7.1-3.6,13.1-8.5,17.9-14.9
					c4.8-6.3,8.4-13.7,10.8-22.2c2.5-8.5,3.7-17.6,3.7-27.3c0-12.7-3-22.7-8.9-30c-5.9-7.3-15-11-27.1-11H517.2z"/>
			</g>
			<g>
				<path d="M620.6,250.7l21.1-110.3h29.9l-21.1,110.3H620.6z M645,123.7l5-27.3H680l-5.3,27.3H645z"/>
			</g>
			<g>
				<path d="M709.9,252.9c-8.1,0-15.2-0.8-21.3-2.5c-6.1-1.7-10.6-3.6-13.6-5.6l6.9-23.4c1.6,1.3,3.6,2.6,6.1,4s5.1,2.5,8,3.5
					c2.9,1,5.8,1.9,8.7,2.5c2.9,0.7,5.7,1,8.2,1c6.4,0,10.7-1.4,13.1-4.3c2.4-2.9,3.6-6.2,3.6-10c0-3.8-1.5-6.6-4.6-8.4
					c-3.1-1.8-7-3.5-11.8-5.1c-3.2-1-6.2-2.1-9.2-3.3c-2.9-1.2-5.6-2.7-7.9-4.6c-2.3-1.9-4.2-4.2-5.6-6.9c-1.4-2.7-2.1-6.1-2.1-10.3
					c0-3.8,0.7-8.1,2.2-12.9c1.4-4.8,4-9.2,7.5-13.3c3.6-4.1,8.4-7.6,14.5-10.4c6.1-2.8,13.6-4.2,22.7-4.2c3.5,0,7.1,0.3,10.7,0.8
					c3.6,0.5,6.9,1.1,10.1,1.9c3.1,0.7,5.9,1.6,8.3,2.5c2.4,1,4.2,2,5.5,3l-6.9,23.4c-1-1.3-2.5-2.7-4.6-4.2
					c-2.1-1.5-4.4-2.8-7.1-3.9c-2.6-1.1-5.4-2-8.4-2.8c-3-0.7-5.9-1.1-8.7-1.1c-2.2,0-4.5,0.3-6.8,0.8c-2.3,0.5-4.4,1.3-6.2,2.4
					c-1.8,1.1-3.4,2.5-4.5,4.3c-1.2,1.8-1.8,3.9-1.8,6.4c0,2.2,0.6,4,1.9,5.5c1.3,1.5,2.9,2.7,4.9,3.7c2,1,4.3,1.9,6.9,2.6
					c2.6,0.7,5.3,1.5,8,2.4c3.4,1,6.5,2.2,9.3,3.5c2.9,1.3,5.4,3,7.5,5c2.2,2,3.8,4.4,5,7.4c1.2,2.9,1.8,6.5,1.8,10.8
					c0,5.1-0.8,10.1-2.4,14.9c-1.6,4.8-4.3,9-8.1,12.7c-3.8,3.7-9,6.6-15.4,8.8C727.8,251.8,719.7,252.9,709.9,252.9z"/>
			</g>
			<g>
				<path d="M822.6,254.5c-7.4,0-13.8-1.2-19.3-3.7c-5.5-2.5-10.1-5.9-13.7-10.1c-3.6-4.2-6.3-9.2-8.1-14.9
					c-1.8-5.7-2.7-11.8-2.7-18.3c0-9.1,1.5-17.8,4.6-26.3c3-8.5,7.4-16,13.2-22.6c5.7-6.6,12.7-11.8,20.9-15.8
					c8.2-3.9,17.5-5.9,27.8-5.9c4.6,0,8.5,0.2,11.7,0.7c3.2,0.5,6,1.1,8.5,1.8c2.5,0.8,4.5,1.7,6.3,2.7c1.7,1.1,3.4,2.1,5,3.2
					l-6.7,24c-4.1-3-8.3-5.3-12.6-6.9c-4.3-1.6-9.1-2.4-14.6-2.4c-4.6,0-8.9,1.2-12.9,3.5c-3.9,2.3-7.4,5.6-10.4,9.6
					c-3,4.1-5.3,8.8-6.9,14.3c-1.6,5.4-2.5,11.3-2.5,17.5c0,7.9,1.6,14.2,4.9,19c3.3,4.8,8,7.3,14.1,7.3c5.4,0,10.6-0.8,15.3-2.4
					c4.8-1.6,9.8-3.9,15.1-6.9l-2.2,24c-4.1,2.3-8.7,4.2-13.8,5.9C838.7,253.7,831.6,254.5,822.6,254.5z"/>
			</g>
			<g>
				<path d="M1044.2,254.1c-7.7,0-14.5-1.3-20.5-3.9c-5.9-2.6-10.8-6-14.8-10.3c-3.9-4.3-6.9-9.4-8.9-15.2c-2-5.8-3-12.1-3-18.7
					c0-9.1,1.7-17.8,5.1-26.1c3.4-8.3,8.1-15.7,14.3-22.1c6.2-6.4,13.5-11.6,21.9-15.4c8.5-3.9,17.9-5.8,28.2-5.8
					c7.9,0,14.7,1.2,20.6,3.7c5.8,2.5,10.7,5.9,14.7,10.3c3.9,4.4,6.9,9.5,8.9,15.3c2,5.8,3,12.1,3,18.7c0,9.1-1.7,17.8-5.1,26.1
					c-3.4,8.3-8.1,15.7-14.2,22.1c-6.1,6.4-13.4,11.6-21.9,15.4C1064,252.2,1054.6,254.1,1044.2,254.1z M1062.2,159.7
					c-4.9,0-9.5,1.2-13.6,3.5c-4.1,2.3-7.6,5.6-10.6,9.6c-3,4.1-5.3,8.9-6.9,14.3c-1.6,5.4-2.5,11.3-2.5,17.5
					c0,7.9,1.7,14.2,5.1,19.1c3.4,4.8,8.3,7.3,14.9,7.3c4.9,0,9.4-1.2,13.6-3.5c4.1-2.3,7.6-5.6,10.6-9.6c3-4.1,5.3-8.9,6.9-14.3
					c1.6-5.4,2.5-11.3,2.5-17.5c0-7.9-1.7-14.2-5.1-19.1C1073.7,162.1,1068.8,159.7,1062.2,159.7z"/>
			</g>
			<g>
				<path d="M1159.4,252.9h-11.3c-8,0-13.8-2.1-17.4-6.2c-3.6-4.1-5.4-9.3-5.4-15.4c0-2.2,0.2-4.6,0.7-7.3l26.6-138.7h29.7
					l-24.4,127.5c-1,5.1-1.4,8.8-1.4,11c0,3.4,0.8,5.3,2.3,5.8c1.5,0.5,3.9,0.8,7.1,0.8L1159.4,252.9z"/>
			</g>
			<g>
				<path d="M1234.1,162.9l-16.8,87.8h-29.9l16.8-87.8h-13.9l6.5-22.5h11.7l5-26.2c0.6-3.5,1.8-7,3.6-10.5c1.8-3.5,4-6.5,6.7-9.3
					c2.7-2.7,5.9-4.9,9.5-6.6c3.6-1.7,7.7-2.5,12.3-2.5c3.7,0,6.7,0,9.1,0.1c2.4,0.1,4.4,0.2,6.1,0.3c1.7,0.1,3.2,0.3,4.7,0.4
					c1.4,0.1,3.1,0.3,5,0.4l-6.2,22.7c-2.2-0.6-4.5-0.9-6.8-1c-2.3-0.1-3.6-0.1-3.9-0.1c-3.5,0-6.1,1.2-7.8,3.5
					c-1.7,2.4-3.2,6.9-4.4,13.7l-2.9,15h21.5l-4.3,22.5H1234.1z"/>
			</g>
			<g>
				<path d="M1241,250.7l5.5-28.7h29.9l-5.5,28.7H1241z"/>
			</g>
			<g>
				<path d="M1337.2,252.9c-7.2,0-13.5-1.2-18.8-3.6c-5.3-2.4-9.8-5.7-13.3-9.8c-3.5-4.1-6.1-8.9-7.9-14.4
					c-1.8-5.5-2.6-11.4-2.6-17.8c0-8.8,1.5-17.3,4.4-25.6c2.9-8.2,7.2-15.5,12.8-21.9c5.6-6.4,12.4-11.5,20.4-15.3
					c8-3.8,17-5.7,27.1-5.7c4.5,0,8.3,0.2,11.4,0.7c3.1,0.4,5.9,1,8.3,1.8c2.4,0.7,4.4,1.6,6.1,2.6c1.7,1,3.3,2.1,4.9,3.1l-6.5,23.4
					c-4-2.9-8.1-5.2-12.3-6.7c-4.2-1.5-8.9-2.3-14.2-2.3c-4.5,0-8.6,1.1-12.5,3.4c-3.8,2.3-7.2,5.4-10.1,9.4
					c-2.9,4-5.1,8.6-6.7,13.9c-1.6,5.3-2.4,11-2.4,17c0,7.6,1.6,13.8,4.8,18.5c3.2,4.7,7.8,7.1,13.7,7.1c5.3,0,10.3-0.8,14.9-2.3
					c4.7-1.5,9.5-3.8,14.7-6.7l-2.2,23.4c-4,2.2-8.5,4.1-13.4,5.7C1352.9,252.1,1346,252.9,1337.2,252.9z"/>
			</g>
			<g>
				<path d="M1440.2,226.5h40.9l-4.8,24.3h-90.5l60.3-86h-41.7l4.5-24.3h91.5L1440.2,226.5z"/>
			</g>
		</g>
		<path d="M993,157.6l4.8-17.2h-9c-5.1,0-9.7,0.5-13.8,1.5c-4.1,1-7.1,2.1-9,3.3c-2.2-2.1-5.3-3.7-9.2-4.9c-3.9-1.2-8.2-1.8-13-1.8
			c-8.1,0-15.4,1.4-21.9,4.2c-6.5,2.8-12.1,6.5-16.7,11.2c-4.6,4.7-8.1,10.1-10.6,16.2c-2.5,6.1-3.7,12.4-3.7,18.9
			c0,5.7,0.9,11.1,2.7,16.1c1.8,5,4.2,9.1,7.3,12.4c-3.8,2.1-7,4.4-9.5,7.2c-2.5,2.7-3.8,6.1-3.8,10.3c0,2.9,0.7,5.5,2,7.7
			c0.5,0.8,1,1.6,1.6,2.3c-29,9.8-48.2,29.7-45,49c3.2,19.5,27.9,32.2,58.8,32.2c6.1,0,12.5-0.5,18.9-1.6
			c39.1-6.4,67.8-30.4,64-53.7c-1.4-8.7-7.1-16-15.7-21.5c-0.5-0.6-1.5-1.3-2.9-2.1c-14.2-8-47.7-13.6-47.7-13.6
			c-4.2-1-6.3-2.8-6.3-5.3c0-0.3,0.1-0.9,0.4-1.9c0.2-1,0.8-1.7,1.5-2.3c1.6,0.3,3.1,0.6,4.5,0.8c1.4,0.2,3.1,0.3,5,0.3
			c8.1,0,15.4-1.4,22-4.3c6.6-2.9,12.1-6.7,16.7-11.6c4.5-4.9,8-10.4,10.5-16.8c2.5-6.3,3.7-12.9,3.7-19.8c0-2.5-0.1-5.1-0.4-7.9
			c-0.2-2.8-0.6-5.2-1.1-7.3c0.8-0.1,1.4-0.2,1.8-0.2H993z M910.8,301.9c-24.2,3.9-45.6-3.5-47.7-16.6c-0.5-3,0.1-6.2,1.8-9.4
			c5.4-10.2,20.4-18.6,38.2-21.5c4.4-0.7,8.6-1,12.7-1c18.6,0,33.2,7,35,17.7C952.9,284.2,935,298,910.8,301.9z M951.8,186.9
			c-1,3.7-2.4,6.9-4.3,9.6c-1.9,2.7-4.2,4.9-7,6.5c-2.8,1.6-6,2.4-9.6,2.4c-4.9,0-8.4-1.5-10.6-4.5c-2.1-3-3.2-7-3.2-12
			c0-4.1,0.5-8,1.4-11.7c1-3.7,2.4-6.9,4.3-9.6c1.9-2.7,4.3-4.9,7.1-6.5c2.9-1.6,6.2-2.4,10-2.4c4.6,0,8,1.5,10.1,4.5
			c2.1,3,3.2,7,3.2,12C953.3,179.3,952.8,183.2,951.8,186.9z"/>
	</g>
	<path class="st0" d="M827.3,275.4c0,0-312.2,75.9-619.6,9.8c311.5,102.4,628.7,35.8,628.7,35.8S811.6,305.3,827.3,275.4z"/>
</g>
</svg>
